<svg width="256" height="256" viewBox="0 0 256 256" fill="none" xmlns="http://www.w3.org/2000/svg">
<rect width="256" height="256" rx="128" fill="url(#paint0_linear_103_79)"/>
<path d="M106.881 200.36C103.481 200.36 100.441 199.66 97.7606 198.26C95.1206 196.82 93.0406 194.86 91.5206 192.38C90.0006 189.86 89.2406 187.02 89.2406 183.86V157.94H98.3006V183.32C98.3006 185 98.6806 186.52 99.4406 187.88C100.201 189.2 101.221 190.26 102.501 191.06C103.821 191.86 105.281 192.26 106.881 192.26C108.521 192.26 110.001 191.86 111.321 191.06C112.681 190.26 113.741 189.2 114.501 187.88C115.301 186.52 115.701 185 115.701 183.32V157.94H124.461V183.86C124.461 187.02 123.701 189.86 122.181 192.38C120.661 194.86 118.561 196.82 115.881 198.26C113.241 199.66 110.241 200.36 106.881 200.36ZM159.385 200L146.365 181.16L129.685 158H140.725L153.445 176.6L170.425 200H159.385ZM129.385 200L145.405 177.14L152.245 181.88L139.825 200H129.385ZM154.405 180.5L147.625 175.94L159.385 158H169.825L154.405 180.5Z" fill="white"/>
<path d="M71.7998 148V106H80.0198L95.3198 130.9L89.9198 130.84L105.4 106H113.26V148H104.44V133.6C104.44 130 104.52 126.76 104.68 123.88C104.88 121 105.2 118.14 105.64 115.3L106.72 118.12L94.4198 137.2H90.4598L78.3998 118.24L79.4198 115.3C79.8598 117.98 80.1598 120.74 80.3198 123.58C80.5198 126.38 80.6198 129.72 80.6198 133.6V148H71.7998ZM124.183 148V106H152.563V113.92H132.943V140.08H152.983V148H124.183ZM128.383 130.42V122.74H149.683V130.42H128.383ZM175.889 148.6C173.289 148.6 170.909 148.28 168.749 147.64C166.629 147 164.729 146.06 163.049 144.82C161.409 143.58 159.929 142.08 158.609 140.32L164.249 133.9C166.209 136.62 168.149 138.48 170.069 139.48C172.029 140.44 174.149 140.92 176.429 140.92C177.669 140.92 178.769 140.76 179.729 140.44C180.729 140.08 181.509 139.58 182.069 138.94C182.629 138.3 182.909 137.54 182.909 136.66C182.909 136.02 182.769 135.44 182.489 134.92C182.209 134.36 181.809 133.88 181.289 133.48C180.769 133.04 180.149 132.66 179.429 132.34C178.709 131.98 177.909 131.68 177.029 131.44C176.149 131.16 175.189 130.94 174.149 130.78C171.909 130.26 169.949 129.64 168.269 128.92C166.589 128.16 165.189 127.24 164.069 126.16C162.949 125.04 162.109 123.78 161.549 122.38C161.029 120.98 160.769 119.4 160.769 117.64C160.769 115.84 161.169 114.18 161.969 112.66C162.769 111.1 163.869 109.76 165.269 108.64C166.709 107.52 168.349 106.66 170.189 106.06C172.069 105.46 174.049 105.16 176.129 105.16C178.689 105.16 180.929 105.46 182.849 106.06C184.769 106.62 186.429 107.44 187.829 108.52C189.269 109.6 190.469 110.92 191.429 112.48L185.729 118C184.889 116.88 183.969 115.94 182.969 115.18C182.009 114.42 180.949 113.86 179.789 113.5C178.669 113.1 177.509 112.9 176.309 112.9C174.989 112.9 173.849 113.08 172.889 113.44C171.929 113.76 171.169 114.24 170.609 114.88C170.089 115.52 169.829 116.3 169.829 117.22C169.829 117.94 170.009 118.58 170.369 119.14C170.729 119.7 171.249 120.2 171.929 120.64C172.609 121.04 173.429 121.4 174.389 121.72C175.349 122.04 176.409 122.32 177.569 122.56C179.769 123 181.749 123.58 183.509 124.3C185.269 125.02 186.769 125.9 188.009 126.94C189.289 127.94 190.269 129.14 190.949 130.54C191.629 131.9 191.969 133.44 191.969 135.16C191.969 138 191.289 140.42 189.929 142.42C188.569 144.42 186.689 145.96 184.289 147.04C181.889 148.08 179.089 148.6 175.889 148.6Z" fill="white"/>
<path d="M86.1066 98.6C83.0266 98.6 80.1866 98.08 77.5866 97.04C75.0266 95.96 72.7866 94.46 70.8666 92.54C68.9866 90.58 67.5266 88.28 66.4866 85.64C65.4466 82.96 64.9266 80.04 64.9266 76.88C64.9266 73.8 65.4666 70.96 66.5466 68.36C67.6266 65.72 69.1466 63.44 71.1066 61.52C73.0666 59.56 75.3666 58.04 78.0066 56.96C80.6466 55.88 83.5066 55.34 86.5866 55.34C88.5866 55.34 90.5466 55.62 92.4666 56.18C94.4266 56.7 96.2066 57.48 97.8066 58.52C99.4466 59.56 100.847 60.8 102.007 62.24L96.3666 68.48C95.4066 67.52 94.4066 66.7 93.3666 66.02C92.3666 65.3 91.2866 64.76 90.1266 64.4C89.0066 64 87.8066 63.8 86.5266 63.8C84.8066 63.8 83.1866 64.12 81.6666 64.76C80.1866 65.4 78.8866 66.3 77.7666 67.46C76.6466 68.58 75.7466 69.96 75.0666 71.6C74.4266 73.2 74.1066 74.98 74.1066 76.94C74.1066 78.94 74.4266 80.76 75.0666 82.4C75.7066 84 76.6066 85.38 77.7666 86.54C78.9266 87.66 80.3066 88.54 81.9066 89.18C83.5466 89.78 85.3466 90.08 87.3066 90.08C88.5866 90.08 89.8266 89.9 91.0266 89.54C92.2266 89.18 93.3266 88.68 94.3266 88.04C95.3666 87.4 96.2866 86.66 97.0866 85.82L101.467 92.84C100.507 93.92 99.2066 94.9 97.5666 95.78C95.9666 96.66 94.1666 97.36 92.1666 97.88C90.1666 98.36 88.1466 98.6 86.1066 98.6ZM109.054 98V56H117.274L132.574 80.9L127.174 80.84L142.654 56H150.514V98H141.694V83.6C141.694 80 141.774 76.76 141.934 73.88C142.134 71 142.454 68.14 142.894 65.3L143.974 68.12L131.674 87.2H127.714L115.654 68.24L116.674 65.3C117.114 67.98 117.414 70.74 117.574 73.58C117.774 76.38 117.874 79.72 117.874 83.6V98H109.054ZM161.437 98V56H170.437V98H161.437ZM165.577 81.32V73.58H187.297V81.32H165.577ZM165.577 64.1V56H189.817V64.1H165.577Z" fill="white"/>
<defs>
<linearGradient id="paint0_linear_103_79" x1="0" y1="0" x2="256" y2="256" gradientUnits="userSpaceOnUse">
<stop stop-color="#009BFF"/>
<stop offset="0.708333" stop-color="#00558C"/>
</linearGradient>
</defs>
</svg>
